<svg xmlns="http://www.w3.org/2000/svg" viewBox="0 0 80.42 80.43"><defs><style>.cls-1{fill:#fece60;}.cls-1,.cls-2,.cls-3{stroke:#01202e;stroke-miterlimit:10;stroke-width:3px;}.cls-2{fill:#0c7dc2;}.cls-3{fill:#e22341;}.cls-4{fill:#ebf0f2;}.cls-5{fill:#02202f;}</style></defs><title>Recurso 1</title><g id="Capa_2" data-name="Capa 2"><g id="Capa_1-2" data-name="Capa 1"><path class="cls-1" d="M77.37,29.36H3.05a38.71,38.71,0,0,1,74.32,0Z"/><path class="cls-2" d="M78.92,40.22a38.77,38.77,0,0,1-2,12.39H3.52a38.92,38.92,0,0,1-.47-23.25H77.37A38.57,38.57,0,0,1,78.92,40.22Z"/><path class="cls-3" d="M76.9,52.61a38.73,38.73,0,0,1-73.38,0Z"/><polygon class="cls-4" points="18.36 42.2 19.93 43.23 21.66 42.52 21.17 44.33 22.38 45.76 20.51 45.84 19.52 47.43 18.86 45.68 17.04 45.24 18.5 44.07 18.36 42.2"/><polygon class="cls-4" points="22.96 37.44 24.52 38.47 26.26 37.76 25.76 39.57 26.97 41 25.1 41.09 24.12 42.67 23.45 40.92 21.64 40.48 23.1 39.31 22.96 37.44"/><polygon class="cls-4" points="28.58 33.55 30.14 34.58 31.88 33.87 31.38 35.68 32.59 37.11 30.72 37.2 29.74 38.79 29.07 37.04 27.26 36.59 28.72 35.42 28.58 33.55"/><polygon class="cls-4" points="41.94 33.27 43.5 34.29 45.23 33.59 44.74 35.39 45.95 36.82 44.08 36.91 43.09 38.5 42.43 36.75 40.61 36.3 42.07 35.13 41.94 33.27"/><polygon class="cls-4" points="48.29 34.98 49.86 36.01 51.59 35.3 51.1 37.11 52.31 38.54 50.44 38.63 49.45 40.22 48.79 38.47 46.97 38.02 48.43 36.85 48.29 34.98"/><polygon class="cls-4" points="54.63 37.44 56.19 38.47 57.92 37.76 57.43 39.57 58.64 41 56.77 41.09 55.78 42.67 55.12 40.92 53.31 40.48 54.77 39.31 54.63 37.44"/><polygon class="cls-4" points="59.29 42.2 60.85 43.23 62.58 42.52 62.09 44.33 63.3 45.76 61.43 45.84 60.44 47.43 59.78 45.68 57.96 45.24 59.42 44.07 59.29 42.2"/><path class="cls-5" d="M43.75,60.61v5.81H39.83V60.75A25.88,25.88,0,0,1,34,59.82a34,34,0,0,1-5.63-2.14l3-6.1a30.91,30.91,0,0,0,4.56,1.93,17.93,17.93,0,0,0,4,.81V44.18q-6.27-1.56-8.75-4.39a10.42,10.42,0,0,1-2.48-7.11,10.13,10.13,0,0,1,3-7.46,14.07,14.07,0,0,1,8.23-3.74V16.36h3.92v4.93a18.88,18.88,0,0,1,5.13.87A22.45,22.45,0,0,1,54,24.66l-3.23,5.81a21.23,21.23,0,0,0-3.63-1.89,13.06,13.06,0,0,0-3.43-.85v10q5.72,1.43,8.48,4.29A9.67,9.67,0,0,1,55,49a11.06,11.06,0,0,1-2.92,7.85Q49.17,60,43.75,60.61ZM39.83,36.74v-9a5.51,5.51,0,0,0-3,1.41,3.8,3.8,0,0,0-1,2.75,4.42,4.42,0,0,0,.89,2.84A6.89,6.89,0,0,0,39.83,36.74Zm3.92,8.38v9.17a5.12,5.12,0,0,0,3.09-1.48,4.39,4.39,0,0,0,1-3A4.23,4.23,0,0,0,46.91,47,7.22,7.22,0,0,0,43.75,45.12Z"/></g></g></svg>